<mxfile host="app.diagrams.net" modified="2023-12-06T19:35:52.909Z" agent="Mozilla/5.0 (Windows NT 10.0; Win64; x64) AppleWebKit/537.36 (KHTML, like Gecko) Chrome/119.0.0.0 Safari/537.36" etag="ywZMjiu0z834qBqSSyJF" version="22.1.6" type="device">
  <diagram name="Page-1" id="822b0af5-4adb-64df-f703-e8dfc1f81529">
    <mxGraphModel dx="1195" dy="652" grid="1" gridSize="10" guides="1" tooltips="1" connect="1" arrows="1" fold="1" page="1" pageScale="1" pageWidth="827" pageHeight="1169" background="none" math="0" shadow="0">
      <root>
        <mxCell id="0" />
        <mxCell id="1" parent="0" />
        <mxCell id="6Km4HK_GXNzJOCrycND9-97" value="" style="group" vertex="1" connectable="0" parent="1">
          <mxGeometry x="120" y="80" width="650" height="590" as="geometry" />
        </mxCell>
        <mxCell id="6Km4HK_GXNzJOCrycND9-73" value="" style="rounded=1;whiteSpace=wrap;html=1;" vertex="1" parent="6Km4HK_GXNzJOCrycND9-97">
          <mxGeometry width="650" height="590" as="geometry" />
        </mxCell>
        <mxCell id="6Km4HK_GXNzJOCrycND9-80" value="&lt;b&gt;Posible adiciÃ³n:&lt;br&gt;&lt;/b&gt;&lt;br&gt;&lt;br&gt;&lt;br&gt;&lt;br&gt;&lt;br&gt;&lt;br&gt;&lt;br&gt;&lt;br&gt;&lt;br&gt;&lt;br&gt;&lt;br&gt;&lt;br&gt;&lt;br&gt;&lt;br&gt;" style="rounded=1;whiteSpace=wrap;html=1;imageAspect=1;absoluteArcSize=0;arcSize=28;" vertex="1" parent="6Km4HK_GXNzJOCrycND9-97">
          <mxGeometry x="16" y="347" width="220" height="228.45" as="geometry" />
        </mxCell>
        <mxCell id="6Km4HK_GXNzJOCrycND9-98" value="" style="group" vertex="1" connectable="0" parent="6Km4HK_GXNzJOCrycND9-97">
          <mxGeometry x="164" y="441" width="34" height="43.143299999999954" as="geometry" />
        </mxCell>
        <mxCell id="6Km4HK_GXNzJOCrycND9-96" value="" style="endArrow=classic;html=1;rounded=0;entryX=0.927;entryY=0.714;entryDx=0;entryDy=0;entryPerimeter=0;exitX=0.655;exitY=0.451;exitDx=0;exitDy=0;exitPerimeter=0;endSize=6;startSize=6;" edge="1" parent="6Km4HK_GXNzJOCrycND9-98" source="6Km4HK_GXNzJOCrycND9-80">
          <mxGeometry width="50" height="50" relative="1" as="geometry">
            <mxPoint x="2" y="25" as="sourcePoint" />
            <mxPoint x="27" y="43.143299999999954" as="targetPoint" />
          </mxGeometry>
        </mxCell>
        <mxCell id="6Km4HK_GXNzJOCrycND9-95" value="" style="endArrow=classic;html=1;rounded=0;entryX=0.7;entryY=0.451;entryDx=0;entryDy=0;entryPerimeter=0;" edge="1" parent="6Km4HK_GXNzJOCrycND9-98">
          <mxGeometry width="50" height="50" relative="1" as="geometry">
            <mxPoint x="34" y="37" as="sourcePoint" />
            <mxPoint as="targetPoint" />
          </mxGeometry>
        </mxCell>
        <mxCell id="6Km4HK_GXNzJOCrycND9-110" value="" style="shape=filledEdge;curved=0;rounded=0;fixDash=1;endArrow=none;strokeWidth=5;fillColor=#ffffff;edgeStyle=orthogonalEdgeStyle;html=1;entryX=0.655;entryY=0.757;entryDx=0;entryDy=0;entryPerimeter=0;" edge="1" parent="6Km4HK_GXNzJOCrycND9-97" target="6Km4HK_GXNzJOCrycND9-80">
          <mxGeometry width="60" height="40" relative="1" as="geometry">
            <mxPoint x="95" y="520" as="sourcePoint" />
            <mxPoint x="150" y="520" as="targetPoint" />
            <Array as="points">
              <mxPoint x="95" y="490" />
              <mxPoint x="135" y="490" />
              <mxPoint x="135" y="520" />
            </Array>
          </mxGeometry>
        </mxCell>
        <mxCell id="6Km4HK_GXNzJOCrycND9-81" value="" style="shape=image;verticalLabelPosition=bottom;labelBackgroundColor=default;verticalAlign=top;aspect=fixed;imageAspect=0;image=https://static.thenounproject.com/png/1512325-200.png;" vertex="1" parent="6Km4HK_GXNzJOCrycND9-97">
          <mxGeometry x="70" y="500" width="50" height="50" as="geometry" />
        </mxCell>
        <mxCell id="6Km4HK_GXNzJOCrycND9-115" value="" style="shape=filledEdge;curved=0;rounded=0;fixDash=1;endArrow=none;strokeWidth=5;fillColor=#ffffff;edgeStyle=orthogonalEdgeStyle;html=1;" edge="1" parent="6Km4HK_GXNzJOCrycND9-97" source="6Km4HK_GXNzJOCrycND9-11">
          <mxGeometry width="60" height="40" relative="1" as="geometry">
            <mxPoint x="294" y="514.14" as="sourcePoint" />
            <mxPoint x="220" y="514" as="targetPoint" />
            <Array as="points">
              <mxPoint x="269" y="484" />
              <mxPoint x="229" y="484" />
              <mxPoint x="229" y="514" />
            </Array>
          </mxGeometry>
        </mxCell>
        <mxCell id="6Km4HK_GXNzJOCrycND9-39" value="&lt;b&gt;Alexa&lt;br&gt;&lt;br&gt;&lt;br&gt;&lt;br&gt;&lt;/b&gt;" style="rounded=1;whiteSpace=wrap;html=1;container=0;" vertex="1" parent="1">
          <mxGeometry x="160" y="205" width="72" height="70" as="geometry" />
        </mxCell>
        <mxCell id="6Km4HK_GXNzJOCrycND9-2" value="" style="shape=image;html=1;verticalAlign=top;verticalLabelPosition=bottom;labelBackgroundColor=#ffffff;imageAspect=0;aspect=fixed;image=https://cdn1.iconfinder.com/data/icons/fruit-136/64/Fruit_iconfree_Filled_Outline_raspberry-healthy-organic-food-fruit_icon-128.png" vertex="1" parent="1">
          <mxGeometry x="354" y="120" width="40" height="40" as="geometry" />
        </mxCell>
        <mxCell id="6Km4HK_GXNzJOCrycND9-3" value="&lt;b&gt;Node-RED&lt;/b&gt;" style="rounded=1;whiteSpace=wrap;html=1;" vertex="1" parent="1">
          <mxGeometry x="340" y="170" width="120" height="60" as="geometry" />
        </mxCell>
        <mxCell id="6Km4HK_GXNzJOCrycND9-4" value="" style="shape=mxgraph.cisco.computers_and_peripherals.laptop;html=1;pointerEvents=1;dashed=0;fillColor=#dae8fc;strokeColor=#6c8ebf;strokeWidth=2;verticalLabelPosition=bottom;verticalAlign=top;align=center;outlineConnect=0;" vertex="1" parent="1">
          <mxGeometry x="400" y="124" width="50" height="35" as="geometry" />
        </mxCell>
        <mxCell id="6Km4HK_GXNzJOCrycND9-7" value="" style="group" vertex="1" connectable="0" parent="1">
          <mxGeometry x="365" y="340" width="70" height="70" as="geometry" />
        </mxCell>
        <mxCell id="6Km4HK_GXNzJOCrycND9-6" value="&lt;font style=&quot;font-size: 10px;&quot;&gt;ESP32&lt;/font&gt;" style="rounded=1;whiteSpace=wrap;html=1;strokeColor=none;" vertex="1" parent="6Km4HK_GXNzJOCrycND9-7">
          <mxGeometry x="15" y="15" width="40" height="40" as="geometry" />
        </mxCell>
        <mxCell id="6Km4HK_GXNzJOCrycND9-5" value="" style="sketch=0;pointerEvents=1;shadow=0;dashed=0;html=1;strokeColor=none;fillColor=#434445;aspect=fixed;labelPosition=center;verticalLabelPosition=bottom;verticalAlign=top;align=center;outlineConnect=0;shape=mxgraph.vvd.cpu;" vertex="1" parent="6Km4HK_GXNzJOCrycND9-7">
          <mxGeometry width="70" height="70" as="geometry" />
        </mxCell>
        <mxCell id="6Km4HK_GXNzJOCrycND9-8" value="" style="endArrow=classic;html=1;rounded=0;" edge="1" parent="1">
          <mxGeometry width="50" height="50" relative="1" as="geometry">
            <mxPoint x="397" y="330" as="sourcePoint" />
            <mxPoint x="397" y="240" as="targetPoint" />
          </mxGeometry>
        </mxCell>
        <mxCell id="6Km4HK_GXNzJOCrycND9-9" value="" style="endArrow=classic;html=1;rounded=0;" edge="1" parent="1">
          <mxGeometry width="50" height="50" relative="1" as="geometry">
            <mxPoint x="403" y="240" as="sourcePoint" />
            <mxPoint x="403" y="330" as="targetPoint" />
          </mxGeometry>
        </mxCell>
        <mxCell id="6Km4HK_GXNzJOCrycND9-10" value="&lt;b&gt;MQTT&lt;/b&gt;" style="ellipse;shape=cloud;whiteSpace=wrap;html=1;" vertex="1" parent="1">
          <mxGeometry x="410" y="260" width="70" height="50" as="geometry" />
        </mxCell>
        <mxCell id="6Km4HK_GXNzJOCrycND9-11" value="" style="shape=image;verticalLabelPosition=bottom;labelBackgroundColor=default;verticalAlign=top;aspect=fixed;imageAspect=0;image=data:image/svg+xml,PHN2ZyB4bWxuczp4bGluaz0iaHR0cDovL3d3dy53My5vcmcvMTk5OS94bGluayIgeG1sbnM9Imh0dHA6Ly93d3cudzMub3JnLzIwMDAvc3ZnIiB2aWV3Qm94PSIwIDAgNzQuMjE1IDc0LjIxNSIgdmVyc2lvbj0iMS4xIj4mI3hhOyAgPGc+JiN4YTsgICAgPHBhdGggZD0ibTM3LjQwMSw0OS4wODNjMS42ODUsMCAzLjA1NS0xLjM3IDMuMDU1LTMuMDU1IDAtMS4zMjYtMS42OTMtNC4wNjktMi4yMTEtNC44NzgtMC4xODQtMC4yODctMC41MDEtMC40Ni0wLjg0MS0wLjQ2LTAuMzQsMC0wLjY1OCwwLjE3My0wLjg0MSwwLjQ2LTAuNTIsMC44MDktMi4yMTQsMy41NTItMi4yMTQsNC44NzktMC4wMDMsMS42ODMgMS4zNjgsMy4wNTQgMy4wNTIsMy4wNTR6bS4wMDEtNS40NDZjMC42MDksMS4wOTQgMS4wNDgsMi4wNjcgMS4wNTQsMi4zOTEgMCwwLjU4Mi0wLjQ3MywxLjA1NS0xLjA1NSwxLjA1NS0wLjU4MSwwLTEuMDU0LTAuNDczLTEuMDU0LTEuMDU0IDAuMDA1LTAuMzI0IDAuNDQ1LTEuMjk5IDEuMDU1LTIuMzkyeiIvPiYjeGE7ICAgIDxwYXRoIGQ9Im01NC4xMywwaC0zNC4wNDdjLTMuMzA0LDAtNS45OTIsMi42ODgtNS45OSw2LjA1bDMuNTIsNjIuMTcyYzAsMy4zMDUgMi42ODgsNS45OTMgNS45OTIsNS45OTNoMjguNzYzYzMuMzA1LDAgNS45OTMtMi42ODggNS45OTMtNS45NjVsMS43NjEtNjIuMjU3Yy03LjEwNTQzZS0xNS0zLjMwNS0yLjY4OC01Ljk5My01Ljk5Mi01Ljk5M3ptLTM0LjA0NywyaDM0LjA0N2MyLjIwMSwwIDMuOTkyLDEuNzkyIDMuOTkyLDMuOTY1bC0uNjcsMjMuNjg1aC0xMC42MThsMi40MjEtMTkuNzE5YzAuMDM1LTAuMjg1LTAuMDU0LTAuNTctMC4yNDQtMC43ODUtMC4xOS0wLjIxNC0wLjQ2Mi0wLjMzNy0wLjc0OS0wLjMzN2gtMjIuNjAzYy0wLjI5MywwLTAuNTcyLDAuMTI5LTAuNzYzLDAuMzUzLTAuMTksMC4yMjQtMC4yNzIsMC41Mi0wLjIyNCwwLjgxbDMuMjQ4LDE5LjY3OGgtMTAuNDlsLTEuMzM5LTIzLjY1N2MwLTIuMjAxIDEuNzkxLTMuOTkzIDMuOTkyLTMuOTkzem0zNi4zMzksNjQuMDk3Yy0wLjA3Ny0wLjAxOS0wLjE1MS0wLjA0Ny0wLjIzNC0wLjA0N2gtNi4zNTVjMC41MjQtMC4zMDYgMS4wODktMC43ODYgMS41ODktMS41NzEgMC45NzctMS41MzQgMS40Mi0zLjc3IDEuMzU1LTYuNjY0IDAuNzY0LTAuMjExIDEuNzAzLTAuODczIDIuMjg0LTIuNzQzIDEuMjk1LTQuMTcgMC4xODktMTIuMjQ3LTIuNzYxLTE1LjExMS0xLjEwNi0xLjA3NS0yLjQwNi0xLjQyMy0zLjc3MS0xLjAzNi0wLjQ4MS0xLjQwNi0wLjk5LTIuODQ4LTEuNTUyLTQuMzU2LTAuMTQ2LTAuMzkxLTAuNTItMC42NTEtMC45MzctMC42NTFoLTYuNTI2YzAuMDgxLTAuMTQ1IDAuMTQtMC4zMDIgMC4xNC0wLjQ3OXYtMS43ODloNi4wNDljMC4wMDIsMCAwLjAwMy0wLjAwMSAwLjAwNS0wLjAwMWgxMS42ODdsLS45NzMsMzQuNDQ4em0tMTkuMjczLTMzLjc1aDAuNTA1djAuMDkxaC0wLjUwNXYtMC4wOTF6bTguMTk2LDMuNTdjMC4yNywwLjczMiAwLjUyMywxLjQ0IDAuNzY5LDIuMTM1aC0xNy42MTRjMC4yNTQtMC42OTYgMC41MTctMS40MDMgMC43OTgtMi4xMzVoMTYuMDQ3em0zLjgxOSw0LjljMC40NDQtMC4xMDcgMS4wNS0wLjA5NSAxLjc0NCwwLjU3OSAyLjQwNCwyLjMzNCAzLjMzMyw5LjU3OSAyLjI0NCwxMy4wODMtMC4xNDQsMC40NjEtMC4zMjEsMC44MjEtMC41MDgsMS4wNy0wLjM5Mi0zLjkyNC0xLjU1OC04Ljg0OC0zLjQ4LTE0LjczMnptLTIxLjM3Ny0uNzY1aDE5LjAxN2M1LjMyMSwxNS43NSA0LjE4OSwyMS4zNzUgMi45MzEsMjMuMzUyLTAuNjEyLDAuOTYtMS4zMDcsMS4xMjctMS41NTMsMS4xNTVoLTIxLjc2Yy0wLjIxOC0wLjExNS0wLjg1OC0wLjUyOS0xLjQxMi0xLjYzNi0xLjE4NS0yLjM2Ny0yLjIzNS04LjM5OCAyLjc3Ny0yMi44NzF6bTE3LjQyOC0xMy42MzJoLTE1LjgwMWwtMi41NzYtMTUuNjEyaDIwLjI5NGwtMS45MTcsMTUuNjEyem0tMTUuNDcxLDJoMTUuMjI2bC0uMTUxLDEuMjI5aC0xNC44NzJsLS4yMDMtMS4yMjl6bS0xMi4yLDMuMjI5aDExLjU0OWMwLjAwMiwwIDAuMDAzLDAuMDAxIDAuMDA1LDAuMDAxaDYuMDUxdjEuNzg3YzAsMC4xNzcgMC4wNTksMC4zMzUgMC4xNCwwLjQ3OWgtNi42NzdjLTAuNDEyLDAtMC43ODIsMC4yNTMtMC45MzIsMC42MzctNi45MDcsMTcuNzQ4LTYuMjM3LDI1LjcxLTQuNDU4LDI5LjI2NCAwLjU4OSwxLjE3NyAxLjI4MywxLjg0NyAxLjgzLDIuMjMxaC01LjU2bC0xLjk0OC0zNC4zOTl6bTM0LjgyNCw0MC41NjZoLTI4Ljc2M2MtMi4yMDEsMC0zLjk5Mi0xLjc5MS0zLjk5NC00LjA1bC0uMDA2LS4xMTZoMzYuNTgzYzAuMDYzLDAgMC4xMTktMC4wMjUgMC4xOC0wLjAzNmwtLjAwNiwuMjA5YzAsMi4yMDEtMS43OTEsMy45OTMtMy45OTQsMy45OTN6Ii8+JiN4YTsgICAgPHBhdGggZD0iTTQ4LjExMSw2Mi44MjljMi4yMDItMy43MDUtMC4zMjktMTEuOTk5LTAuMzI5LTExLjk5OUgyNi42MDljLTIuNDk1LDguNzM1LDAuNDQxLDExLjk5OSwwLjQ0MSwxMS45OTlINDguMTExeiIvPiYjeGE7ICA8L2c+JiN4YTs8L3N2Zz4=;" vertex="1" parent="1">
          <mxGeometry x="365" y="570" width="74" height="74" as="geometry" />
        </mxCell>
        <mxCell id="6Km4HK_GXNzJOCrycND9-15" value="" style="group" vertex="1" connectable="0" parent="1">
          <mxGeometry x="372" y="460" width="60" height="59.53" as="geometry" />
        </mxCell>
        <mxCell id="6Km4HK_GXNzJOCrycND9-14" value="&lt;br&gt;&lt;br&gt;&lt;br&gt;RelÃ©" style="rounded=0;whiteSpace=wrap;html=1;" vertex="1" parent="6Km4HK_GXNzJOCrycND9-15">
          <mxGeometry width="60" height="59.53" as="geometry" />
        </mxCell>
        <mxCell id="6Km4HK_GXNzJOCrycND9-12" value="" style="shape=image;verticalLabelPosition=bottom;labelBackgroundColor=default;verticalAlign=top;aspect=fixed;imageAspect=0;image=https://upload.wikimedia.org/wikipedia/commons/thumb/9/92/SPST-NO_relay_symbol.svg/544px-SPST-NO_relay_symbol.svg.png;rotation=-90;" vertex="1" parent="6Km4HK_GXNzJOCrycND9-15">
          <mxGeometry x="13.5" width="33" height="46.53" as="geometry" />
        </mxCell>
        <mxCell id="6Km4HK_GXNzJOCrycND9-16" value="" style="endArrow=classic;html=1;rounded=0;" edge="1" parent="1">
          <mxGeometry width="50" height="50" relative="1" as="geometry">
            <mxPoint x="394" y="420" as="sourcePoint" />
            <mxPoint x="394" y="450" as="targetPoint" />
          </mxGeometry>
        </mxCell>
        <mxCell id="6Km4HK_GXNzJOCrycND9-17" value="" style="endArrow=classic;html=1;rounded=0;" edge="1" parent="1">
          <mxGeometry width="50" height="50" relative="1" as="geometry">
            <mxPoint x="401" y="530" as="sourcePoint" />
            <mxPoint x="401" y="560" as="targetPoint" />
          </mxGeometry>
        </mxCell>
        <mxCell id="6Km4HK_GXNzJOCrycND9-18" value="" style="verticalLabelPosition=bottom;sketch=0;html=1;fillColor=#A153A0;strokeColor=#ffffff;verticalAlign=top;align=center;points=[[0,0.5,0],[0.125,0.25,0],[0.25,0,0],[0.5,0,0],[0.75,0,0],[0.875,0.25,0],[1,0.5,0],[0.875,0.75,0],[0.75,1,0],[0.5,1,0],[0.125,0.75,0]];pointerEvents=1;shape=mxgraph.cisco_safe.compositeIcon;bgIcon=mxgraph.cisco_safe.design.blank_device;resIcon=mxgraph.cisco_safe.design.sensor;" vertex="1" parent="1">
          <mxGeometry x="426.67" y="610" width="33.33" height="30" as="geometry" />
        </mxCell>
        <mxCell id="6Km4HK_GXNzJOCrycND9-19" value="" style="endArrow=classic;html=1;rounded=0;exitX=0.5;exitY=0;exitDx=0;exitDy=0;exitPerimeter=0;" edge="1" parent="1" source="6Km4HK_GXNzJOCrycND9-18">
          <mxGeometry width="50" height="50" relative="1" as="geometry">
            <mxPoint x="490" y="540" as="sourcePoint" />
            <mxPoint x="410" y="420" as="targetPoint" />
            <Array as="points">
              <mxPoint x="443" y="440" />
              <mxPoint x="430" y="440" />
              <mxPoint x="410" y="440" />
            </Array>
          </mxGeometry>
        </mxCell>
        <mxCell id="6Km4HK_GXNzJOCrycND9-22" value="" style="group" vertex="1" connectable="0" parent="1">
          <mxGeometry x="609" y="165" width="117.44" height="70" as="geometry" />
        </mxCell>
        <mxCell id="6Km4HK_GXNzJOCrycND9-21" value="&lt;b&gt;Dashboard&lt;br&gt;&lt;br&gt;&lt;br&gt;&lt;br&gt;&lt;br&gt;&lt;/b&gt;" style="rounded=1;whiteSpace=wrap;html=1;" vertex="1" parent="6Km4HK_GXNzJOCrycND9-22">
          <mxGeometry x="-2" width="117.44" height="70" as="geometry" />
        </mxCell>
        <mxCell id="6Km4HK_GXNzJOCrycND9-20" value="" style="sketch=0;outlineConnect=0;gradientColor=#ffa500;fillColor=#ffcd28;strokeColor=#d79b00;dashed=0;verticalLabelPosition=bottom;verticalAlign=top;align=center;html=1;fontSize=12;fontStyle=0;aspect=fixed;pointerEvents=1;shape=mxgraph.aws4.opensearch_dashboards;" vertex="1" parent="6Km4HK_GXNzJOCrycND9-22">
          <mxGeometry x="28.387814569536424" y="19.444444444444446" width="60.66437086092715" height="45.8871523178808" as="geometry" />
        </mxCell>
        <mxCell id="6Km4HK_GXNzJOCrycND9-25" value="" style="group;rotation=90;" vertex="1" connectable="0" parent="1">
          <mxGeometry x="530" y="156" width="6" height="90" as="geometry" />
        </mxCell>
        <mxCell id="6Km4HK_GXNzJOCrycND9-23" value="" style="endArrow=classic;html=1;rounded=0;" edge="1" parent="6Km4HK_GXNzJOCrycND9-25">
          <mxGeometry width="50" height="50" relative="1" as="geometry">
            <mxPoint x="-42" y="42" as="sourcePoint" />
            <mxPoint x="48" y="42" as="targetPoint" />
          </mxGeometry>
        </mxCell>
        <mxCell id="6Km4HK_GXNzJOCrycND9-24" value="" style="endArrow=classic;html=1;rounded=0;" edge="1" parent="6Km4HK_GXNzJOCrycND9-25">
          <mxGeometry width="50" height="50" relative="1" as="geometry">
            <mxPoint x="48" y="48" as="sourcePoint" />
            <mxPoint x="-42" y="48" as="targetPoint" />
          </mxGeometry>
        </mxCell>
        <mxCell id="6Km4HK_GXNzJOCrycND9-36" value="" style="group" vertex="1" connectable="0" parent="1">
          <mxGeometry x="160" y="125" width="72" height="70" as="geometry" />
        </mxCell>
        <mxCell id="6Km4HK_GXNzJOCrycND9-27" value="&lt;b&gt;Telegram&lt;br&gt;&lt;br&gt;&lt;br&gt;&lt;br&gt;&lt;/b&gt;" style="rounded=1;whiteSpace=wrap;html=1;" vertex="1" parent="6Km4HK_GXNzJOCrycND9-36">
          <mxGeometry width="72" height="70" as="geometry" />
        </mxCell>
        <mxCell id="6Km4HK_GXNzJOCrycND9-35" value="" style="shape=image;verticalLabelPosition=bottom;labelBackgroundColor=default;verticalAlign=top;aspect=fixed;imageAspect=0;image=https://upload.wikimedia.org/wikipedia/commons/thumb/8/82/Telegram_logo.svg/2048px-Telegram_logo.svg.png;" vertex="1" parent="6Km4HK_GXNzJOCrycND9-36">
          <mxGeometry x="16" y="24" width="40" height="40" as="geometry" />
        </mxCell>
        <mxCell id="6Km4HK_GXNzJOCrycND9-37" value="" style="shape=image;verticalLabelPosition=bottom;labelBackgroundColor=default;verticalAlign=top;aspect=fixed;imageAspect=0;image=https://m.media-amazon.com/images/G/01/mobile-apps/dex/avs/docs/ux/branding/Alexa_Talk_Bubble_RGB_BLUE._TTH_.png;" vertex="1" parent="1">
          <mxGeometry x="163.5" y="221.95999999999998" width="65" height="55.04" as="geometry" />
        </mxCell>
        <mxCell id="6Km4HK_GXNzJOCrycND9-43" value="" style="group;rotation=75;" vertex="1" connectable="0" parent="1">
          <mxGeometry x="283" y="181" width="6" height="90" as="geometry" />
        </mxCell>
        <mxCell id="6Km4HK_GXNzJOCrycND9-44" value="" style="endArrow=classic;html=1;rounded=0;" edge="1" parent="6Km4HK_GXNzJOCrycND9-43">
          <mxGeometry width="50" height="50" relative="1" as="geometry">
            <mxPoint x="-41" y="54" as="sourcePoint" />
            <mxPoint x="45" y="31" as="targetPoint" />
          </mxGeometry>
        </mxCell>
        <mxCell id="6Km4HK_GXNzJOCrycND9-45" value="" style="endArrow=classic;html=1;rounded=0;" edge="1" parent="6Km4HK_GXNzJOCrycND9-43">
          <mxGeometry width="50" height="50" relative="1" as="geometry">
            <mxPoint x="47" y="36" as="sourcePoint" />
            <mxPoint x="-39" y="59" as="targetPoint" />
          </mxGeometry>
        </mxCell>
        <mxCell id="6Km4HK_GXNzJOCrycND9-46" value="" style="group;rotation=110;" vertex="1" connectable="0" parent="1">
          <mxGeometry x="283" y="131.96" width="6" height="90" as="geometry" />
        </mxCell>
        <mxCell id="6Km4HK_GXNzJOCrycND9-47" value="" style="endArrow=classic;html=1;rounded=0;" edge="1" parent="6Km4HK_GXNzJOCrycND9-46">
          <mxGeometry width="50" height="50" relative="1" as="geometry">
            <mxPoint x="-38" y="26" as="sourcePoint" />
            <mxPoint x="46" y="57" as="targetPoint" />
          </mxGeometry>
        </mxCell>
        <mxCell id="6Km4HK_GXNzJOCrycND9-48" value="" style="endArrow=classic;html=1;rounded=0;" edge="1" parent="6Km4HK_GXNzJOCrycND9-46">
          <mxGeometry width="50" height="50" relative="1" as="geometry">
            <mxPoint x="44" y="64" as="sourcePoint" />
            <mxPoint x="-40" y="33" as="targetPoint" />
          </mxGeometry>
        </mxCell>
        <mxCell id="6Km4HK_GXNzJOCrycND9-64" value="" style="group" vertex="1" connectable="0" parent="1">
          <mxGeometry x="160.5" y="275" width="72" height="79" as="geometry" />
        </mxCell>
        <mxCell id="6Km4HK_GXNzJOCrycND9-69" value="" style="group" vertex="1" connectable="0" parent="6Km4HK_GXNzJOCrycND9-64">
          <mxGeometry y="9" width="72" height="70" as="geometry" />
        </mxCell>
        <mxCell id="6Km4HK_GXNzJOCrycND9-62" value="" style="rounded=1;whiteSpace=wrap;html=1;container=0;" vertex="1" parent="6Km4HK_GXNzJOCrycND9-69">
          <mxGeometry width="72" height="70" as="geometry" />
        </mxCell>
        <mxCell id="6Km4HK_GXNzJOCrycND9-61" value="" style="shape=image;verticalLabelPosition=bottom;labelBackgroundColor=default;verticalAlign=top;aspect=fixed;imageAspect=0;image=https://cdn.icon-icons.com/icons2/2415/PNG/512/mongodb_original_wordmark_logo_icon_146425.png;container=0;" vertex="1" parent="6Km4HK_GXNzJOCrycND9-69">
          <mxGeometry x="6.5" y="6" width="60" height="60" as="geometry" />
        </mxCell>
        <mxCell id="6Km4HK_GXNzJOCrycND9-67" value="" style="group;rotation=54;" vertex="1" connectable="0" parent="1">
          <mxGeometry x="290" y="230" width="6" height="90" as="geometry" />
        </mxCell>
        <mxCell id="6Km4HK_GXNzJOCrycND9-65" value="" style="endArrow=classic;html=1;rounded=0;" edge="1" parent="6Km4HK_GXNzJOCrycND9-67">
          <mxGeometry width="50" height="50" relative="1" as="geometry">
            <mxPoint x="-35" y="69" as="sourcePoint" />
            <mxPoint x="38" y="16" as="targetPoint" />
          </mxGeometry>
        </mxCell>
        <mxCell id="6Km4HK_GXNzJOCrycND9-66" value="" style="endArrow=classic;html=1;rounded=0;" edge="1" parent="6Km4HK_GXNzJOCrycND9-67">
          <mxGeometry width="50" height="50" relative="1" as="geometry">
            <mxPoint x="41" y="21" as="sourcePoint" />
            <mxPoint x="-32" y="74" as="targetPoint" />
          </mxGeometry>
        </mxCell>
        <mxCell id="6Km4HK_GXNzJOCrycND9-75" value="" style="group" vertex="1" connectable="0" parent="1">
          <mxGeometry x="435" y="330" width="321" height="234" as="geometry" />
        </mxCell>
        <mxCell id="6Km4HK_GXNzJOCrycND9-71" value="&lt;div&gt;&lt;ul&gt;&lt;li&gt;&lt;font face=&quot;Roboto&quot;&gt;Encendido remoto.&lt;/font&gt;&lt;/li&gt;&lt;li&gt;&lt;font face=&quot;Roboto&quot;&gt;ProgramaciÃ³n de hora de comienzo.&lt;/font&gt;&lt;/li&gt;&lt;li&gt;&lt;font face=&quot;Roboto&quot;&gt;Control desde bot de Telegram, Alexa, Node-RED, placa ESP32 o desde la propia cafetera.&lt;/font&gt;&lt;/li&gt;&lt;li&gt;&lt;font face=&quot;Roboto&quot;&gt;FunciÃ³n &quot;Recalentar&quot;.&lt;/font&gt;&lt;/li&gt;&lt;li&gt;&lt;font face=&quot;Roboto&quot;&gt;ProtecciÃ³n sobrecalentamiento.&lt;/font&gt;&lt;/li&gt;&lt;li&gt;&lt;font face=&quot;Roboto&quot;&gt;GrÃ¡fica histÃ³rica de temperatura.&lt;/font&gt;&lt;/li&gt;&lt;li&gt;&lt;font face=&quot;Roboto&quot;&gt;Posiblemente aÃ±adir sensor de nivel de agua y llenado automÃ¡tico del depÃ³sito.&lt;/font&gt;&lt;/li&gt;&lt;/ul&gt;&lt;/div&gt;" style="text;whiteSpace=wrap;html=1;" vertex="1" parent="6Km4HK_GXNzJOCrycND9-75">
          <mxGeometry y="24" width="321.00000000000006" height="210" as="geometry" />
        </mxCell>
        <mxCell id="6Km4HK_GXNzJOCrycND9-74" value="&lt;h3 style=&quot;border-color: var(--border-color); color: rgb(0, 0, 0); font-family: Helvetica; font-style: normal; font-variant-ligatures: normal; font-variant-caps: normal; letter-spacing: normal; orphans: 2; text-align: left; text-indent: 0px; text-transform: none; widows: 2; word-spacing: 0px; -webkit-text-stroke-width: 0px; background-color: rgb(251, 251, 251); text-decoration-thickness: initial; text-decoration-style: initial; text-decoration-color: initial;&quot;&gt;&lt;font face=&quot;Roboto&quot; style=&quot;border-color: var(--border-color);&quot;&gt;Funcionalidades:&lt;/font&gt;&lt;/h3&gt;" style="text;whiteSpace=wrap;html=1;" vertex="1" parent="6Km4HK_GXNzJOCrycND9-75">
          <mxGeometry x="28.77931034482759" width="154.96551724137933" height="70" as="geometry" />
        </mxCell>
        <mxCell id="6Km4HK_GXNzJOCrycND9-84" value="" style="group" vertex="1" connectable="0" parent="1">
          <mxGeometry x="216" y="470" width="60" height="59.52999999999997" as="geometry" />
        </mxCell>
        <mxCell id="6Km4HK_GXNzJOCrycND9-82" value="&lt;br&gt;&lt;br&gt;&lt;br&gt;Driver" style="rounded=0;whiteSpace=wrap;html=1;" vertex="1" parent="6Km4HK_GXNzJOCrycND9-84">
          <mxGeometry width="60" height="59.53" as="geometry" />
        </mxCell>
        <mxCell id="6Km4HK_GXNzJOCrycND9-78" value="" style="pointerEvents=1;shadow=0;dashed=0;html=1;strokeColor=none;fillColor=#4495D1;labelPosition=center;verticalLabelPosition=bottom;verticalAlign=top;align=center;outlineConnect=0;shape=mxgraph.veeam.cpu;" vertex="1" parent="6Km4HK_GXNzJOCrycND9-84">
          <mxGeometry x="18.680000000000064" y="11.32000000000005" width="22.64" height="22.64" as="geometry" />
        </mxCell>
        <mxCell id="6Km4HK_GXNzJOCrycND9-86" style="edgeStyle=orthogonalEdgeStyle;rounded=0;orthogonalLoop=1;jettySize=auto;html=1;exitX=1;exitY=0.25;exitDx=0;exitDy=0;" edge="1" parent="1" source="6Km4HK_GXNzJOCrycND9-82" target="6Km4HK_GXNzJOCrycND9-5">
          <mxGeometry relative="1" as="geometry">
            <Array as="points">
              <mxPoint x="310" y="485" />
              <mxPoint x="310" y="375" />
            </Array>
          </mxGeometry>
        </mxCell>
        <mxCell id="6Km4HK_GXNzJOCrycND9-88" value="" style="endArrow=classic;html=1;rounded=0;exitX=0.369;exitY=0.525;exitDx=0;exitDy=0;exitPerimeter=0;" edge="1" parent="1">
          <mxGeometry width="50" height="50" relative="1" as="geometry">
            <mxPoint x="359.8499999999999" y="384.75" as="sourcePoint" />
            <mxPoint x="280" y="500" as="targetPoint" />
            <Array as="points">
              <mxPoint x="320" y="385" />
              <mxPoint x="320" y="445" />
              <mxPoint x="320" y="500" />
            </Array>
          </mxGeometry>
        </mxCell>
        <mxCell id="6Km4HK_GXNzJOCrycND9-112" value="" style="group" vertex="1" connectable="0" parent="1">
          <mxGeometry x="277.99666666666667" y="567" width="62" height="59.53" as="geometry" />
        </mxCell>
        <mxCell id="6Km4HK_GXNzJOCrycND9-113" value="&lt;br&gt;&lt;br&gt;&lt;br&gt;Bomba" style="rounded=0;whiteSpace=wrap;html=1;" vertex="1" parent="6Km4HK_GXNzJOCrycND9-112">
          <mxGeometry width="62" height="59.53" as="geometry" />
        </mxCell>
        <mxCell id="6Km4HK_GXNzJOCrycND9-114" value="" style="shape=mxgraph.pid.pumps.peristaltic;html=1;pointerEvents=1;align=center;verticalLabelPosition=bottom;verticalAlign=top;dashed=0;" vertex="1" parent="6Km4HK_GXNzJOCrycND9-112">
          <mxGeometry x="17.515000000000047" y="10" width="26.959666666666667" height="30" as="geometry" />
        </mxCell>
      </root>
    </mxGraphModel>
  </diagram>
</mxfile>
